<svg xmlns="http://www.w3.org/2000/svg" width="135" height="50" viewBox="0 0 135 50">
  <g fill="none" fill-rule="evenodd" transform="translate(-343 -670)">
    <rect width="1366" height="6215" fill="#FFF"/>
    <g fill-rule="nonzero" transform="translate(347.5 686)">
      <path fill="#0094D0" d="M108.556696,5.12356846 C108.579941,5.10032354 108.614809,5.10032354 108.638054,5.10032354 C109.191089,5.111946 109.745093,5.06545615 110.286506,5.12356846 C110.828888,5.18168077 111.393546,5.48386477 111.532047,6.15990462 C111.543669,6.24126185 111.577568,6.31099662 111.590159,6.39235385 C111.612435,6.47371108 111.624058,6.53182338 111.716069,6.42722123 C112.027938,6.08920131 112.350462,5.76377238 112.731097,5.50710969 C113.25095,5.1701094 113.836715,4.94788848 114.449284,4.85528331 C114.887064,4.797171 115.314189,4.80879346 115.728724,4.87852823 C116.800896,5.05286515 117.619311,5.61268038 118.126825,6.60252669 C118.253703,6.83497592 118.265326,6.84659838 118.415449,6.63642554 C118.847777,6.05229881 119.418139,5.58442906 120.075524,5.27466046 C120.514272,5.06545615 120.98595,4.93664054 121.47022,4.86787431 C121.911046,4.81277496 122.357232,4.81635747 122.797117,4.87852823 C124.088179,5.06545615 125.02185,5.728905 125.494497,6.99769038 C125.678519,7.49842477 125.771499,8.01078162 125.829611,8.54638338 C125.829611,8.56962831 125.829611,8.59287323 125.851888,8.61611815 L125.851888,16.7198795 C125.298852,16.7198795 124.745817,16.7315019 124.191813,16.708257 C123.742411,16.6966345 123.315285,16.5920324 123.016007,16.2307675 C122.803388,15.9675389 122.689319,15.6383495 122.693484,15.3000021 C122.681861,13.5411362 122.681861,11.7842075 122.681861,10.0253416 C122.681861,9.594342 122.658616,9.16334238 122.565637,8.73234277 C122.451349,8.23160838 122.151102,7.84806715 121.51671,7.81223123 C120.559794,7.75411892 119.903124,8.21998592 119.407233,8.98900546 C119.106986,9.44325 118.956862,9.95560685 118.853229,10.4795862 C118.768803,10.8774336 118.730133,11.2836281 118.737973,11.6902592 L118.737973,16.5339201 C118.737973,16.6733896 118.692451,16.708257 118.565573,16.708257 L115.740346,16.708257 C115.613468,16.708257 115.566978,16.6850121 115.566978,16.5455425 C115.566978,14.3217782 115.5786,12.0980139 115.566978,9.87424962 C115.566978,9.43162754 115.533079,8.977383 115.348088,8.55800585 C115.094331,7.95266931 114.587785,7.75411892 113.987292,7.78995485 C113.319,7.83644469 112.846353,8.196741 112.465718,8.71006638 C112.119949,9.17496485 111.912682,9.71056662 111.785804,10.2810358 C111.658925,10.8166375 111.624058,11.3406168 111.624058,11.8888096 L111.624058,16.5339201 C111.624058,16.6733896 111.58919,16.6966345 111.450689,16.6966345 C110.505396,16.6850121 109.571725,16.6966345 108.626431,16.6966345 C108.499553,16.6966345 108.453063,16.6733896 108.453063,16.5339201 C108.464685,15.1014517 108.453063,13.6699518 108.453063,12.2374835 C108.453063,12.1909936 108.44144,12.1328813 108.464685,12.0863915 C108.48793,12.1096364 108.48793,12.1328813 108.48793,12.1561262 L108.48793,16.557165 C108.48793,16.5804099 108.522798,16.557165 108.499553,16.557165 C108.499553,16.557165 108.48793,16.557165 108.48793,16.5455425 L108.48793,5.263038 C108.546042,5.23979308 108.522798,5.18168077 108.556696,5.12356846 Z"/>
      <path fill="#00327C" d="M51.597918,0.0929796923 C51.8284302,0.162714462 52.0589423,0.220826769 52.2662095,0.349642385 C52.9470921,0.756428538 53.3277277,1.56031546 53.2008492,2.35161138 C53.0623482,3.13225338 52.4628228,3.77245731 51.7015516,3.92354931 C50.6293795,4.14534462 49.6259737,3.47027331 49.4303289,2.36420238 C49.2355319,1.32820576 49.9083196,0.327649628 50.9412489,0.117193154 C50.9635253,0.104602154 50.9983927,0.117193154 51.0216376,0.0813572308 C51.2056599,0.0929796923 51.4013047,0.0929796923 51.597918,0.0929796923 Z M48.8424261,16.7198795 C47.8041528,16.6966345 46.7891245,16.7547468 45.7750648,16.6850121 C45.2104068,16.6501447 44.7832814,16.3712056 44.484003,15.8937162 C44.1605112,15.3697368 43.8951316,14.7992677 43.6074757,14.2520435 C43.2491165,13.5760036 42.8926943,12.9009323 42.5353036,12.2142385 C42.43167,12.0166567 42.2815465,11.9343309 42.0849332,11.8994635 C41.9357783,11.8762186 41.7972773,11.8645962 41.6471538,11.8762186 C41.4166417,11.8878411 41.4398866,11.8413512 41.4398866,12.074769 L41.4398866,16.5804099 C41.4398866,16.6733896 41.4166417,16.708257 41.3130081,16.708257 L38.2340243,16.708257 C38.1420132,16.708257 38.1081143,16.6850121 38.1187682,16.5920324 C38.1303907,16.4409404 38.1187682,16.3014708 38.1187682,16.1494103 L38.1187682,0.779673462 C38.1187682,0.547224231 38.0955233,0.582091615 38.3153815,0.582091615 C38.9149068,0.593714077 39.5144322,0.558846692 40.1255799,0.605336538 C40.8171164,0.651826385 41.2316508,0.966601385 41.3817743,1.57193792 C41.4398866,1.76951977 41.4515091,1.99131508 41.4515091,2.18889692 L41.4515091,8.75558769 C41.4515091,8.96576054 41.4515091,8.96576054 41.6703988,8.96576054 C41.8427986,8.96576054 42.016167,8.96576054 42.1895354,8.94251562 C42.4655688,8.91927069 42.6844585,8.80304608 42.834582,8.55800585 C43.5493634,7.42869 44.2757672,6.29937415 45.0021711,5.15843585 C45.0486609,5.07707862 45.1058047,5.04221123 45.1987844,5.04221123 L48.8191812,5.04221123 C48.72717,5.18168077 48.6458128,5.30952785 48.5654241,5.43737492 C47.6201305,6.84659838 46.6864595,8.26744431 45.7401974,9.67569923 C45.5911017,9.90097031 45.4211847,10.1117453 45.2326832,10.3052492 C45.1987844,10.3391481 45.1522945,10.3740155 45.2104068,10.4330963 C45.6481862,10.8631274 45.8786984,11.4219741 46.1324555,11.9459534 C46.8588593,13.4132892 47.7353866,14.7992677 48.5654241,16.2075226 C48.6458128,16.3944505 48.7378239,16.5465111 48.8424261,16.720848 L48.8424261,16.7198795 Z M58.1926964,6.38073138 C58.3893097,6.194772 58.5510556,6.00784408 58.7467004,5.84512962 C59.5418705,5.18168077 60.4532652,4.85528331 61.4789474,4.80879346 C62.1821063,4.77392608 62.8736428,4.84366085 63.5322489,5.08870108 C64.59183,5.49548723 65.2494676,6.27612923 65.5836134,7.34733277 C65.7676357,7.94104685 65.8489929,8.55800585 65.8489929,9.17496485 L65.8489929,12.4234428 C65.8489929,13.7861765 65.8606154,15.1479415 65.8606154,16.5222976 C65.8606154,16.7431244 65.8838603,16.7198795 65.6649706,16.708257 C65.0993442,16.6966345 64.5463087,16.7315019 63.9816508,16.6850121 C63.1051235,16.6268998 62.5976093,16.091298 62.5511195,15.2070224 C62.5172206,14.3450232 62.539497,13.4946464 62.539497,12.6336157 L62.539497,9.73381154 C62.539497,9.44325 62.5172206,9.15268846 62.4358634,8.87181231 C62.275086,8.23257692 61.8712055,7.92942438 61.2251903,7.90617946 C59.9341285,7.85968962 58.7805992,8.61611815 58.3893097,10.1531887 C58.2971771,10.5265018 58.2506704,10.9096129 58.2508087,11.294127 L58.2508087,16.5222976 C58.2508087,16.6617672 58.2275638,16.708257 58.0667864,16.708257 C57.0789115,16.6966098 56.0909336,16.6966098 55.1030587,16.708257 C54.9761802,16.708257 54.9413128,16.6733896 54.9413128,16.5455425 L54.9413128,5.17005831 C54.9413128,5.111946 54.9296903,5.05383369 55.0333239,5.05383369 C55.6221953,5.06545615 56.2100982,5.01799777 56.798001,5.07707862 C57.4440162,5.14681338 57.9970516,5.47224231 58.1471751,6.26450677 C58.1653239,6.30201618 58.1805431,6.3408737 58.1926964,6.38073138 L58.1926964,6.38073138 Z"/>
      <path fill="#0094D0" d="M94.4092551,8.15025115 L94.4092551,8.977383 C94.4092551,9.07036269 94.3860102,9.11685254 94.2833451,9.10523008 C93.752586,9.10523008 93.2334494,9.11685254 92.7026903,9.09360762 C92.1380324,9.07036269 91.7109069,8.77883262 91.5385071,8.17349608 C91.4687723,7.92942438 91.2615051,7.82482223 91.0542378,7.75508746 C89.9471984,7.37057769 88.6096468,7.71925154 87.859998,8.62774062 C87.5432066,9.0176594 87.3222757,9.47643918 87.2149514,9.96722931 C87.0844254,10.5051282 87.0685853,11.0644784 87.1684615,11.608902 C87.3641063,12.5871258 87.8832429,13.3203095 88.7830152,13.7629315 C89.4629292,14.0883605 90.1777105,14.1823087 90.9041144,14.0651155 C91.6305182,13.9488909 92.2881558,13.623462 92.8760587,13.1808399 C93.1298158,12.9822895 93.3719504,12.7847077 93.5792176,12.540636 C93.6373299,12.4825237 93.6596063,12.4699327 93.7060962,12.5522585 C94.1215992,13.2621972 94.5477561,13.9605134 94.9748815,14.6714206 C95.0204028,14.7527778 94.9971579,14.8108902 94.9400142,14.8806249 C94.5477561,15.3348695 94.0751093,15.6951658 93.5792176,16.0099408 C93.0261822,16.3586146 92.4266568,16.6036548 91.8038866,16.7663693 C90.9370007,16.9820173 90.0368421,17.0296883 89.1520283,16.9068074 C88.2140672,16.8011247 87.3136864,16.4781151 86.5224464,15.9634509 C85.4874054,15.2951453 84.7011615,14.3046823 84.2851225,13.145004 C84.0006259,12.374483 83.8677587,11.5562316 83.893833,10.7352803 C83.9403228,9.128475 84.4817358,7.71925154 85.6352652,6.57831323 C86.3035567,5.91486438 87.0880728,5.46061985 87.9752541,5.17005831 C88.6212041,4.96449821 89.2928316,4.85071277 89.9704433,4.83203838 C90.8924919,4.80879346 91.7912956,4.948263 92.6455465,5.30952785 C93.2799392,5.57684446 93.8329747,5.94973177 94.1564665,6.58993569 C94.3172439,6.89308823 94.3860102,7.20786323 94.3860102,7.54491462 C94.3976326,7.75508746 94.4092551,7.95170077 94.4092551,8.15025115 L94.4092551,8.15025115 Z"/>
      <path fill="#00327C" d="M49.7877196,10.8979948 L49.7877196,5.21654815 C49.7877196,5.14681338 49.7644747,5.07707862 49.8797308,5.07707862 C50.4792561,5.08870108 51.0787814,5.05286515 51.6899292,5.10032354 C52.4850992,5.17005831 52.9809909,5.67079269 53.0623482,6.47371108 C53.0739706,6.62480308 53.0855931,6.76427262 53.0855931,6.91633315 L53.0855931,16.557165 C53.0855931,16.6850121 53.0623482,16.7315019 52.9238472,16.7315019 C51.9359723,16.7198547 50.9479944,16.7198547 49.9601195,16.7315019 C49.8216185,16.7315019 49.7993421,16.6850121 49.7993421,16.557165 C49.7993421,14.6714206 49.7993421,12.7847077 49.7877196,10.8979948 C49.7993421,10.8979948 49.7877196,10.8979948 49.7877196,10.8979948 L49.7877196,10.8979948 Z"/>
      <path fill="#0094D0" d="M81.4724868,16.8486951 C80.4574585,16.8835625 79.5470324,16.0099408 79.5470324,14.9038698 C79.5470324,13.8094214 80.4468046,12.9706671 81.4608644,12.9590446 C82.5097915,12.9474222 83.3979413,13.8559112 83.3979413,14.9038698 C83.3979413,15.9518285 82.5330365,16.8835625 81.4724868,16.8486951 Z"/>
      <path fill="#002F5F" d="M78.2559706,16.1377878 C78.2211032,16.0448082 78.2443482,15.9518285 78.2443482,15.8704712 L78.2443482,5.27466046 C78.2443482,5.06545615 78.2443482,5.06545615 78.0254585,5.06545615 L76.5823362,5.06545615 C76.628826,5.01799777 76.6753158,5.04124269 76.7324596,5.04124269 L78.139746,5.04124269 C78.2433796,5.04124269 78.2772785,5.06545615 78.2772785,5.17005831 C78.2772785,8.75558769 78.2772785,12.3420856 78.2666245,15.9285835 C78.2666245,15.9983183 78.2550021,16.0680531 78.2550021,16.1377878 L78.2559706,16.1377878 Z"/>
      <path fill="#00327C" d="M9.06261438,8.37204646 C8.94735831,8.31393415 8.84372469,8.24323085 8.71684615,8.17349608 C8.79723485,8.10376131 8.86696962,8.045649 8.93573585,7.98753669 C9.19281949,7.77450364 9.42833835,7.53671394 9.63889477,7.277598 C10.2500425,6.46208862 10.4815232,5.54197708 10.4234109,4.52985438 C10.3430222,3.08576354 9.67376215,2.001969 8.42822169,1.29203031 C7.55266292,0.791295923 6.59574692,0.616959 5.60396354,0.605336538 C4.29710825,0.59369074 2.99017513,0.59369074 1.68331985,0.605336538 C1.15256077,0.605336538 0.714781385,0.827131846 0.380635615,1.24554046 C0.196613308,1.47798969 0.103633615,1.74627485 0.0222763846,2.02618246 L0.0222763846,16.6617672 L5.61655454,16.6617672 C6.40107069,16.6617672 7.17299585,16.557165 7.91102215,16.2898484 C9.00547062,15.9169611 9.90621138,15.2767572 10.4815232,14.240421 C11.0471497,13.2157073 11.1740282,12.1096364 10.9318936,10.9686981 C10.7130039,9.81613731 10.1018562,8.93089315 9.06358292,8.37204646 L9.06261438,8.37204646 Z M3.10126015,5.57684446 C3.10126015,5.57684446 3.11288262,5.57684446 3.10126015,5.57684446 C3.10126015,5.13519092 3.08963769,4.70419131 3.11288262,4.26156923 C3.13612754,3.62136531 3.424752,3.29496785 4.05817615,3.26010046 C4.66932392,3.22523308 5.28047169,3.20198815 5.89161946,3.28334538 C6.65289069,3.39957 7.14878238,3.87705946 7.28631485,4.63445654 C7.41416192,5.29790538 7.33280469,5.92648685 6.90664777,6.47467962 C6.572502,6.91633315 6.08823277,7.07904762 5.55747369,7.09067008 C4.78458,7.10229254 4.01265485,7.09067008 3.23976115,7.09067008 C3.13612754,7.09067008 3.10126015,7.05580269 3.11385115,6.95120054 C3.11385115,6.496956 3.10126015,6.031089 3.10126015,5.57684446 L3.10126015,5.57684446 Z M7.45968323,13.2040848 C7.06839369,13.7048192 6.53763462,13.9140235 5.93810931,13.925646 C5.02768315,13.9488909 4.12694238,13.925646 3.21651623,13.9372685 C3.11288262,13.9372685 3.10126015,13.9024011 3.10126015,13.8210438 L3.10126015,12.1677487 C3.10126015,11.6437694 3.08963769,11.1197901 3.10126015,10.5841883 C3.11288262,9.93236192 3.47027331,9.594342 4.11628846,9.594342 C4.69256885,9.594342 5.25819531,9.58271954 5.83447569,9.594342 C6.572502,9.61758692 7.19527223,9.86262715 7.58753031,10.526076 C8.07179954,11.2825045 8.01368723,12.5048001 7.45968323,13.2040848 Z M78.1174696,5.04124269 C77.7484565,5.05286515 77.3910658,5.04124269 77.0220526,5.04124269 C76.8719292,5.04124269 76.7334282,5.02962023 76.5833047,5.05286515 C75.9837794,5.06545615 75.5692449,5.35601769 75.3145193,5.91486438 C75.096146,5.70616696 74.8520411,5.52618023 74.5881155,5.37926262 C73.5856782,4.80879346 72.5018836,4.68094638 71.3832217,4.83203838 C69.4461448,5.10032354 68.1202156,6.20639446 67.4286792,8.03402654 C66.8640212,9.53526115 66.8407763,11.0849227 67.2669332,12.6336157 C67.5555577,13.6815743 68.0979392,14.5900634 68.9279767,15.3000021 C69.9652814,16.1842777 71.1759545,16.5222976 72.5251285,16.4525628 C73.4016558,16.406073 74.2084484,16.1620013 74.8999848,15.5789412 C74.9232298,15.5673187 74.9348522,15.5440738 74.9697196,15.5556962 C74.9813421,15.7658691 74.9697196,15.9634509 74.9580972,16.1726552 C74.8777085,16.9765422 74.4970728,17.5935012 73.7474241,17.9315211 C72.9406315,18.3034398 72.0873492,18.2801949 71.2340668,18.1523478 C70.76142,18.0826131 70.2994272,17.9198986 69.8500253,17.791083 C69.2853674,17.6283685 68.9047318,17.8027055 68.6509747,18.3383072 C68.6277298,18.3857656 68.6044848,18.4438779 68.5822085,18.4903678 C68.3855952,18.9911022 68.1899504,19.4802141 67.9933371,19.9809485 C67.9478158,20.0855506 67.9710607,20.120418 68.0630718,20.1785303 C68.9153857,20.6434288 69.8161265,20.9349588 70.76142,21.0986418 C71.0374535,21.1451317 71.302833,21.1799991 71.579835,21.2148665 L72.8244069,21.2148665 C72.8476518,21.1799991 72.8825192,21.1916215 72.9057642,21.1916215 C73.3036087,21.1671243 73.6977411,21.1005698 74.0815698,20.9930712 C75.1082206,20.737377 76.0418917,20.2957235 76.8031629,19.5383264 C77.7484565,18.5949699 78.1746134,17.4424092 78.2443482,16.1261654 L78.2443482,5.18168077 C78.2675931,5.07707862 78.2327257,5.04124269 78.1174696,5.04124269 L78.1174696,5.04124269 Z M74.7963512,12.1909936 C74.4854504,13.0529928 73.7929454,13.5527587 72.8708968,13.5643812 C71.7299585,13.5760036 70.9338198,13.0171569 70.5764292,11.9227085 C70.2655283,10.9570756 70.2539058,9.99047423 70.622919,9.04711777 C70.9570648,8.196741 71.6030799,7.76670992 72.5018836,7.73184254 C72.9745304,7.71925154 73.4471772,7.76670992 73.8743026,7.98753669 C74.4738279,8.29068923 74.7614838,8.826291 74.9116073,9.45487246 C75.0036185,9.83841369 75.0278319,10.2345459 75.0384858,10.6539231 C75.0384858,11.143035 74.9803735,11.6786368 74.7963512,12.1909936 Z"/>
      <path fill="#0094D0" d="M107.196868,9.30281192 C107.089049,8.8138623 106.910233,8.34332966 106.666109,7.90617946 C106.168487,6.94827313 105.403338,6.15553272 104.463653,5.62430285 C103.714004,5.19330323 102.907212,4.95988546 102.053929,4.86690577 C101.474409,4.8026755 100.888982,4.81439706 100.312497,4.90177315 C99.6956714,4.98989285 99.0965618,5.17456109 98.537166,5.44899738 C97.5860767,5.90428105 96.7827344,6.6186615 96.2194535,7.51004723 C95.5744068,8.53476092 95.2857824,9.66407677 95.2974048,10.8747498 C95.3090273,11.1779024 95.3090273,11.4810549 95.3555172,11.7716165 C95.4445869,12.429755 95.6350644,13.0701254 95.9201751,13.6699518 C96.3349463,14.5507882 96.9801603,15.3030916 97.7875172,15.8472263 C98.6640445,16.4525628 99.6442055,16.7779918 100.693133,16.87194 C101.72669,16.9730292 102.769529,16.829361 103.737249,16.4525628 C104.679786,16.0862104 105.504785,15.4701393 106.123728,14.6704521 C106.569613,14.1027174 106.902355,13.4546587 107.103889,12.7614628 C107.234984,12.3052505 107.319995,11.8370406 107.357646,11.3638618 C107.408412,10.6726681 107.354205,9.97777202 107.196868,9.30281192 L107.196868,9.30281192 Z M104.129507,10.7701477 C104.129507,11.6321469 103.967761,12.3420856 103.518359,12.9590446 C103.149346,13.4830239 102.653454,13.8210438 102.030684,13.9605134 C101.396292,14.1116054 100.786112,14.076738 100.197241,13.8094214 C99.5977156,13.5411362 99.1705902,13.0878602 98.8945567,12.4931776 C98.6343045,11.9449743 98.5116321,11.3415856 98.537166,10.7352803 C98.5720334,9.83841369 98.814168,9.01128185 99.4824595,8.37204646 C100.082953,7.80060877 100.809357,7.59140446 101.627772,7.67276169 C102.791955,7.80157731 103.518359,8.47664862 103.92224,9.54785215 C104.083017,9.99047423 104.152752,10.4330963 104.129507,10.7701477 L104.129507,10.7701477 Z"/>
      <path fill="#00327C" d="M33.7603452,5.48386477 C32.1816275,4.70419131 30.5322065,4.62186554 28.8721315,5.15843585 C27.1655668,5.70566008 25.9665162,6.84659838 25.3088785,8.53476092 C24.8478542,9.71056662 24.7781195,10.9338307 25.0202541,12.1793712 C25.2972561,13.6118395 26.000415,14.7992677 27.1539443,15.6835433 C28.2609838,16.5339201 29.5288006,16.8942164 30.9012196,16.8942164 C31.4193877,16.8942164 31.9385243,16.8486951 32.4460385,16.7198795 C34.1990931,16.2898484 35.5250222,15.2883796 36.3318148,13.6467069 C36.9778299,12.3198092 37.1047085,10.8979948 36.8044615,9.45487246 C36.4122035,7.64951677 35.4097662,6.29937415 33.7603452,5.48386477 Z M33.7148238,10.8863723 C33.7148238,11.6902592 33.5414555,12.4360338 33.0339413,13.0752692 C32.4576609,13.8094214 31.6731448,14.0999829 30.7627186,14.0651155 C29.4716568,14.0070032 28.4914959,13.0868917 28.2144939,11.7251266 C28.0188492,10.7469028 28.1108603,9.80354631 28.6406508,8.93089315 C29.2295222,7.97591423 30.2096832,7.54588315 31.3041316,7.69600662 C32.5264272,7.87034354 33.2412085,8.62774062 33.5879453,9.79192385 C33.6799565,10.1415662 33.7254778,10.5144535 33.7138553,10.8863723 L33.7148238,10.8863723 Z M20.8816892,5.49548723 C19.4627804,4.77392608 17.9644514,4.65770146 16.4419089,5.01799777 C14.6210566,5.46061985 13.2941589,6.54344585 12.5222338,8.27906677 C12.0030972,9.43162754 11.8878411,10.6423006 12.0718634,11.8878411 C12.2684767,13.2621972 12.8563795,14.4380028 13.8704393,15.3697368 C15.0472135,16.4409404 16.4535314,16.8951849 18.0099727,16.9068074 C18.6211205,16.9068074 19.2090233,16.8370726 19.7969262,16.6743582 C21.4812145,16.1842777 22.7374089,15.1711865 23.4870577,13.5653497 C24.0749605,12.2839733 24.2018391,10.9454532 23.9248371,9.57109708 C23.5567925,7.71925154 22.5533866,6.33424154 20.8816892,5.49548723 L20.8816892,5.49548723 Z M20.3857975,12.691728 C19.9354272,13.5295138 19.2090233,13.9721358 18.2753522,14.0534931 C16.7644322,14.1939312 15.6583613,13.2157073 15.3348695,11.8064838 C15.3099402,11.6990739 15.2905439,11.5904546 15.2767572,11.4810549 C15.2424476,11.2808988 15.2310746,11.0774831 15.2428583,10.8747498 C15.2428583,10.0485865 15.4268806,9.29118946 15.9576397,8.63936308 C16.5920324,7.85968962 17.4336923,7.579782 18.4138532,7.70762908 C19.5083017,7.84806715 20.2347055,8.49989354 20.6046872,9.53622969 C20.9620779,10.5958108 20.9272105,11.6670143 20.3857975,12.691728 L20.3857975,12.691728 Z"/>
    </g>
  </g>
</svg>
