<svg xmlns="http://www.w3.org/2000/svg" width="118" height="50" viewBox="0 0 118 50">
  <g fill="none" fill-rule="evenodd" transform="translate(-882 -670)">
    <rect width="1366" height="6215" fill="#FFF"/>
    <g fill-rule="nonzero" transform="translate(887.795 679)">
      <path fill="#15375F" d="M51.186574 23.6191248L47.8933527 23.6191248C47.8756473 23.6191248 47.8756473 23.6191248 47.8579418 23.6014193L45.0073577 20.1311431 42.1567737 23.6014193C42.1567737 23.6191248 42.1390682 23.6191248 42.1213627 23.6191248L39.4832446 23.6191248C39.4655391 23.6191248 39.4478336 23.6191248 39.4478336 23.6014193 39.4478336 23.5837138 39.4478336 23.5660083 39.4478336 23.5660083L43.6440349 18.431416 39.5009501 13.3322346C39.4832446 13.3145291 39.4832446 13.2968236 39.5009501 13.2791181 39.5009501 13.2614126 39.5186556 13.2614126 39.5363611 13.2614126L42.8472879 13.2614126C42.8472879 13.2614126 42.8649933 13.2614126 42.8826988 13.2791181L45.379173 16.377579 47.9110582 13.2791181C47.9110582 13.2614126 47.9287637 13.2614126 47.9464692 13.2614126L50.6377038 13.2614126C50.6554093 13.2614126 50.6731148 13.2791181 50.6731148 13.2791181 50.6731148 13.2968236 50.6731148 13.3145291 50.6731148 13.3322346L46.7424958 18.0241897 51.221985 23.5483028C51.2396905 23.5660083 51.2396905 23.5837138 51.221985 23.5837138 51.221985 23.6014193 51.2042795 23.6191248 51.186574 23.6191248M69.0514143 15.0673727C67.5995641 15.0673727 66.5903511 15.9526473 66.3070632 17.493025L71.2823062 17.493025 71.2823062 17.386792C71.2823062 16.1651131 70.3616206 15.0673727 69.0514143 15.0673727M73.8496023 19.0688136C73.8318968 19.0865191 73.8318968 19.0865191 73.8141913 19.0865191L66.2539468 19.0865191C66.4132962 20.8393627 67.5464476 21.8485757 69.4055241 21.8485757 70.5386755 21.8485757 71.7603544 21.4590549 73.4600815 20.5560749 73.4954925 20.5383694 73.5309035 20.5560749 73.5309035 20.5914859L73.5309035 22.9109052C73.5309035 22.9286106 73.513198 22.9463161 73.513198 22.9463161 71.9197038 23.6191248 70.3262097 24.0794676 69.0691198 24.0794676 65.8113095 24.0794676 63.4564792 21.7069318 63.4564792 18.4491215 63.4564792 15.1913111 65.8113095 12.8187754 69.0691198 12.8187754 72.0436423 12.8187754 73.9381298 14.8194958 73.9381298 17.5638469 73.9204243 18.0064842 73.8496023 19.0511082 73.8496023 19.0688136M89.1825574 11.1013428C88.2618719 11.1013428 87.5005358 10.3577121 87.5005358 9.45473211 87.5005358 8.5163411 88.2618719 7.75500499 89.1825574 7.75500499 90.1032429 7.75500499 90.864579 8.5163411 90.864579 9.45473211 90.864579 10.3577121 90.1032429 11.1013428 89.1825574 11.1013428L89.1825574 11.1013428zM87.8192346 23.6191248C87.7838236 23.6191248 87.7838236 23.6014193 87.7838236 23.5837138L87.7838236 13.2791181C87.7838236 13.2614126 87.8015291 13.2437072 87.8192346 13.2437072L90.5458802 13.2437072C90.5635857 13.2437072 90.5812912 13.2614126 90.5812912 13.2791181L90.5812912 23.5660083C90.5812912 23.5837138 90.5635857 23.6014193 90.5458802 23.6014193L87.8192346 23.6014193 87.8192346 23.6191248zM56.1795225 22.0610416C55.6837687 22.0610416 55.188015 21.9902196 54.6037338 21.8308702L54.6037338 15.2267221C55.2765424 15.0142562 55.8785291 14.9080233 56.4628103 14.9080233 58.3572978 14.9080233 59.6143877 16.3067571 59.6143877 18.3782995 59.6143877 20.6268968 58.2687704 22.0610416 56.1795225 22.0610416M56.9231531 12.8187754C56.1441115 12.8187754 55.3827754 12.9604193 54.5683228 13.2437072L51.8593827 13.2437072C51.8416772 13.2437072 51.8239717 13.2614126 51.8239717 13.2791181L51.8239717 30.1524509C52.6384243 30.046218 53.6476373 29.7452246 54.6214393 29.0547105L54.6214393 23.9201181C55.2942479 24.0086456 55.8431181 24.0794676 56.3742829 24.0794676 60.0924359 24.0794676 62.5003827 21.8485757 62.5003827 18.396005 62.4826772 15.1204892 60.1986689 12.8187754 56.9231531 12.8187754M82.8616972 21.211178C82.0118336 21.6538153 81.2504975 21.8662812 80.5422779 21.8662812 78.8602562 21.8662812 77.8510433 20.6800133 77.8510433 18.6792928 77.8510433 16.377579 79.1435441 14.8903178 81.1265591 14.8903178 81.6754293 14.8903178 82.206594 15.0319617 82.8616972 15.3152496L82.8616972 21.211178zM82.8616972 7.79041597L82.8616972 13.1728852C82.0649501 12.9427138 81.3567304 12.8364809 80.6485108 12.8364809 77.408406 12.8364809 74.9650483 15.2798386 74.9650483 18.5199434 74.9650483 21.7423428 77.1251181 24.0794676 80.0819351 24.0794676 81.1088536 24.0794676 82.0649501 23.8138852 83.1981015 23.2473095L83.1981015 24.1857005C83.9417321 24.0440566 84.8093012 23.7430632 85.6414592 23.1410765L85.6414592 6.69267554C84.8270067 6.79890849 83.8532047 7.08219634 82.8616972 7.79041597L82.8616972 7.79041597zM100.036023 21.1934725C99.2215707 21.6715208 98.5133511 21.9016922 97.8759534 21.9016922 96.0699933 21.9016922 94.9899584 20.7154243 94.9899584 18.7147038 94.9899584 16.448401 96.2647537 14.9257288 98.1592413 14.9257288 98.654995 14.9257288 99.2746872 15.1204892 100.036023 15.5277155L100.036023 21.1934725zM102.833491 13.1197687C102.833491 13.0489468 102.780374 13.0135358 102.709552 13.0135358L100.496366 13.0135358C100.425544 13.0135358 100.372428 13.0666522 100.372428 13.1374742L100.372428 13.5092895 100.319311 13.5092895C99.2923927 13.0666522 98.4248236 12.8541864 97.5749601 12.8541864 94.5296156 12.8541864 92.1393744 15.3860715 92.1393744 18.6261764 92.1393744 21.9016922 94.2817388 24.097173 97.4687271 24.097173 98.3185907 24.097173 99.4163311 24.0440566 100.425544 22.8577887L100.425544 24.1857005C101.151469 24.0263511 102.001333 23.7253577 102.815785 23.1410765L102.833491 13.1197687zM31.958411 21.0341231L38.8104359 21.0341231C38.704203 21.7954592 38.4563261 22.6984393 37.8543394 23.6014193L31.9761165 23.6014193 30.8075541 23.6014193 30.7367321 23.6014193C29.8691631 23.6014193 29.1432379 22.9286106 29.0547105 22.0787471 29.0547105 22.0610416 29.0547105 22.0610416 29.037005 22.0433361L29.037005 15.0319617 29.037005 8.53404659C29.037005 8.5163411 29.037005 8.49863561 29.0547105 8.49863561 29.1432379 7.64877205 29.8514576 6.9582579 30.7367321 6.9582579 30.7721431 6.9582579 30.7898486 6.9582579 30.8075541 6.9582579L38.7927304 6.9582579C38.6864975 7.71959401 38.4209151 8.64027953 37.8366339 9.54325957L31.958411 9.54325957 31.958411 13.2260017 37.765812 13.2260017C37.801223 13.2260017 37.801223 13.2437072 37.801223 13.2614126L37.801223 15.8110033C37.801223 15.8287088 37.7835175 15.8464143 37.765812 15.8464143L31.958411 15.8464143 31.958411 21.0341231 31.958411 21.0341231zM23.3889534 23.8315907C22.7161448 23.8315907 22.291213 23.300426 22.291213 22.6630283 22.291213 21.9725141 22.7692612 21.4944659 23.3889534 21.4944659 23.9909401 21.4944659 24.4689884 21.9725141 24.4689884 22.6630283 24.4689884 23.3358369 23.9909401 23.8315907 23.3889534 23.8315907M23.3889534 21.3351165C22.6984393 21.3351165 22.0964526 21.8485757 22.0964526 22.6453228 22.0964526 23.3889534 22.6276173 23.9555291 23.3889534 23.9555291 24.0794676 23.9555291 24.6637488 23.4420699 24.6637488 22.6453228 24.6637488 21.8662812 24.0617621 21.3351165 23.3889534 21.3351165"/>
      <path fill="#15375F" d="M23.0702546 22.5390899L23.0702546 22.0610416 23.3889534 22.0610416C23.5483028 22.0610416 23.7430632 22.0787471 23.7430632 22.2735075 23.7430632 22.5036789 23.5660083 22.5213844 23.3712479 22.5213844L23.0702546 22.5213844 23.0702546 22.5390899zM23.9909401 22.326624C23.9909401 22.0079251 23.7961797 21.8839867 23.4243644 21.8839867L22.8400832 21.8839867 22.8400832 23.4243644 23.0879601 23.4243644 23.0879601 22.7692612 23.3181314 22.7692612 23.7253577 23.4243644 24.0086456 23.4243644 23.5837138 22.7515557C23.8138852 22.7161448 23.9909401 22.5922063 23.9909401 22.326624L23.9909401 22.326624zM105.082088 14.9434343C104.40928 14.9434343 103.984348 14.4122696 103.984348 13.7571664 103.984348 13.0666522 104.462396 12.588604 105.082088 12.588604 105.684075 12.588604 106.162123 13.0666522 106.162123 13.7571664 106.162123 14.465386 105.684075 14.9434343 105.082088 14.9434343M105.082088 12.4646656C104.391574 12.4646656 103.789587 12.9781248 103.789587 13.7748719 103.789587 14.5185025 104.320752 15.0850782 105.082088 15.0850782 105.772602 15.0850782 106.356884 14.571619 106.356884 13.7748719 106.356884 12.9958303 105.772602 12.4646656 105.082088 12.4646656"/>
      <path fill="#15375F" d="M104.781095 13.6686389L104.781095 13.1905907 105.099794 13.1905907C105.259143 13.1905907 105.453903 13.2082962 105.453903 13.4030566 105.453903 13.633228 105.276849 13.6509334 105.082088 13.6509334L104.781095 13.6509334 104.781095 13.6686389zM105.684075 13.4384676C105.684075 13.1197687 105.489314 12.9958303 105.117499 12.9958303L104.533218 12.9958303 104.533218 14.536208 104.781095 14.536208 104.781095 13.8811048 105.011266 13.8811048 105.418493 14.536208 105.70178 14.536208 105.276849 13.8633993C105.524725 13.8456938 105.684075 13.7217554 105.684075 13.4384676L105.684075 13.4384676zM14.5539135 9.56096506L14.0581597 8.16223128 9.84425291 2.53188519 10.605589 2.33712479 17.8648403 8.60486855 22.1318636 7.38318968C22.6276173 7.25925125 23.194193 7.22384027 23.6368303 7.22384027 22.291213 4.32013977 19.8301498 1.94760399 16.5900449.796747088 10.1806572-1.48726123 3.13387188 1.85907654.83215807 8.28616972.123938436 10.2691847-.0354109817 12.3230216.247876872 14.2706256L10.4816506 10.711822 14.5539135 9.56096506zM24.097173 8.33928619C23.7253577 8.58716306 23.1764875 8.9058619 22.6276173 9.08291681L18.3428885 10.3045957 15.474599 19.4760399 14.7309684 19.7239168 15.3329551 12.7125424 14.9965507 11.2606922 10.9951098 12.3938436.389520799 14.8903178C1.23938436 18.9625807 4.12537937 22.5213844 8.33928619 24.0263511 14.7486739 26.3103594 21.8131647 22.9640216 24.0794676 16.5546339 25.0532696 13.7925774 24.9824476 10.9065824 24.097173 8.33928619"/>
      <path fill="#FFC717" d="M14.9965507,11.2606922 L15.3329551,12.7125424 L14.7309684,19.7239168 L15.474599,19.4760399 L18.325183,10.3045957 L22.6099118,9.08291681 C23.158782,8.9058619 23.7076522,8.58716306 24.0794676,8.33928619 C23.9378236,7.96747088 23.7961797,7.59565557 23.6191248,7.22384027 C23.1764875,7.22384027 22.6099118,7.25925125 22.1141581,7.38318968 L17.8471348,8.60486855 L10.5878835,2.3194193 L9.82654742,2.5141797 L14.0581597,8.14452579 L14.5539135,9.54325957 L10.5170616,10.6941165 L0.283287854,14.2529201 C0.318698835,14.465386 0.354109817,14.6778519 0.389520799,14.8903178 L10.9774043,12.4115491 L14.9965507,11.2606922 Z"/>
    </g>
  </g>
</svg>
