<svg xmlns="http://www.w3.org/2000/svg" width="95" height="50" viewBox="0 0 95 50">
  <g fill="none" fill-rule="evenodd" transform="translate(-109 -670)">
    <rect width="1366" height="6215" fill="#FFF"/>
    <path fill="#FF5A5F" fill-rule="nonzero" d="M49.7083975,7.35227329 C49.7083975,8.40678261 48.8589317,9.25624845 47.8044224,9.25624845 C46.749913,9.25624845 45.9004472,8.40678261 45.9004472,7.35227329 C45.9004472,6.29776398 46.7206211,5.44829814 47.8044224,5.44829814 C48.8882236,5.47759006 49.7083975,6.3270559 49.7083975,7.35227329 Z M41.8581615,11.1895155 L41.8581615,11.6581863 C41.8581615,11.6581863 40.9501118,10.4865093 39.0168447,10.4865093 C35.8240248,10.4865093 33.3342112,12.9177391 33.3342112,16.2863106 C33.3342112,19.6255901 35.7947329,22.0861118 39.0168447,22.0861118 C40.9794037,22.0861118 41.8581615,20.8851429 41.8581615,20.8851429 L41.8581615,21.3831056 C41.8581615,21.617441 42.033913,21.7931925 42.2682484,21.7931925 L44.6408944,21.7931925 L44.6408944,10.7794286 L42.2682484,10.7794286 C42.033913,10.7794286 41.8581615,10.984472 41.8581615,11.1895155 Z M41.8581615,18.2488696 C41.4187826,18.8932919 40.5400248,19.4498385 39.4855155,19.4498385 C37.6108323,19.4498385 36.175528,18.2781615 36.175528,16.2863106 C36.175528,14.2944596 37.6108323,13.1227826 39.4855155,13.1227826 C40.5107329,13.1227826 41.4480745,13.7086211 41.8581615,14.3237516 L41.8581615,18.2488696 L41.8581615,18.2488696 Z M46.3984099,10.7794286 L49.2104348,10.7794286 L49.2104348,21.7931925 L46.3984099,21.7931925 L46.3984099,10.7794286 Z M88.4030311,10.4865093 C86.469764,10.4865093 85.5617143,11.6581863 85.5617143,11.6581863 L85.5617143,5.47759006 L82.7496894,5.47759006 L82.7496894,21.7931925 L85.1223354,21.7931925 C85.3566708,21.7931925 85.5324224,21.5881491 85.5324224,21.3831056 L85.5324224,20.8851429 C85.5324224,20.8851429 86.440472,22.0861118 88.3737391,22.0861118 C91.566559,22.0861118 94.0563727,19.6255901 94.0563727,16.2863106 C94.0563727,12.9470311 91.566559,10.4865093 88.4030311,10.4865093 L88.4030311,10.4865093 Z M87.9343602,19.4205466 C86.850559,19.4205466 86.0010932,18.864 85.5617143,18.2195776 L85.5617143,14.2944596 C86.0010932,13.7086211 86.9384348,13.0934907 87.9343602,13.0934907 C89.8090435,13.0934907 91.2443478,14.2651677 91.2443478,16.2570186 C91.2443478,18.2488696 89.8090435,19.4205466 87.9343602,19.4205466 L87.9343602,19.4205466 Z M81.2850932,15.2610932 L81.2850932,21.8224845 L78.4730683,21.8224845 L78.4730683,15.5833043 C78.4730683,13.767205 77.8872298,13.0349068 76.3054658,13.0349068 C75.456,13.0349068 74.5772422,13.4742857 74.0206957,14.1187081 L74.0206957,21.7931925 L71.2086708,21.7931925 L71.2086708,10.7794286 L73.4348571,10.7794286 C73.6691925,10.7794286 73.8449441,10.984472 73.8449441,11.1895155 L73.8449441,11.6581863 C74.665118,10.8087205 75.7489193,10.4865093 76.8327205,10.4865093 C78.0629814,10.4865093 79.0881988,10.8380124 79.9083727,11.5410186 C80.9042981,12.3611925 81.2850932,13.4157019 81.2850932,15.2610932 L81.2850932,15.2610932 Z M64.3836522,10.4865093 C62.4503851,10.4865093 61.5423354,11.6581863 61.5423354,11.6581863 L61.5423354,5.47759006 L58.7303106,5.47759006 L58.7303106,21.7931925 L61.1029565,21.7931925 C61.3372919,21.7931925 61.5130435,21.5881491 61.5130435,21.3831056 L61.5130435,20.8851429 C61.5130435,20.8851429 62.4210932,22.0861118 64.3543602,22.0861118 C67.5471801,22.0861118 70.0369938,19.6255901 70.0369938,16.2863106 C70.0662857,12.9470311 67.576472,10.4865093 64.3836522,10.4865093 L64.3836522,10.4865093 Z M63.9149814,19.4205466 C62.8311801,19.4205466 61.9817143,18.864 61.5423354,18.2195776 L61.5423354,14.2944596 C61.9817143,13.7086211 62.9190559,13.0934907 63.9149814,13.0934907 C65.7896646,13.0934907 67.2249689,14.2651677 67.2249689,16.2570186 C67.2249689,18.2488696 65.7896646,19.4205466 63.9149814,19.4205466 L63.9149814,19.4205466 Z M56.2990807,10.4865093 C57.1485466,10.4865093 57.5879255,10.6329689 57.5879255,10.6329689 L57.5879255,13.2399503 C57.5879255,13.2399503 55.2445714,12.4490683 53.7799752,14.1187081 L53.7799752,21.8224845 L50.9679503,21.8224845 L50.9679503,10.7794286 L53.3405963,10.7794286 C53.5749317,10.7794286 53.7506832,10.984472 53.7506832,11.1895155 L53.7506832,11.6581863 C54.2779379,11.0430559 55.420323,10.4865093 56.2990807,10.4865093 L56.2990807,10.4865093 Z M27.0950311,20.7972671 C26.9485714,20.445764 26.8021118,20.0649689 26.6556522,19.7427578 C26.4213168,19.2155031 26.1869814,18.7175404 25.9819379,18.2488696 L25.952646,18.2195776 C23.9315031,13.8257888 21.7639006,9.37341615 19.4791304,4.97962733 L19.3912547,4.80387578 C19.1569193,4.36449689 18.9225839,3.89582609 18.6882484,3.42715528 C18.3953292,2.89990062 18.1024099,2.34335404 17.6337391,1.81609938 C16.6963975,0.64442236 15.3489689,0 13.9136646,0 C12.4490683,0 11.1309317,0.64442236 10.1642981,1.75751553 C9.72491925,2.28477019 9.40270807,2.84131677 9.10978882,3.36857143 C8.87545342,3.83724224 8.64111801,4.30591304 8.40678261,4.74529193 L8.31890683,4.92104348 C6.06342857,9.3148323 3.86653416,13.767205 1.8453913,18.1609938 L1.81609938,18.2195776 C1.6110559,18.6882484 1.3767205,19.1862112 1.14238509,19.7134658 C0.995925466,20.035677 0.849465839,20.3871801 0.703006211,20.7679752 C0.32221118,21.8517764 0.205043478,22.8769938 0.351503106,23.9315031 C0.673714286,26.1283975 2.13831056,27.9737888 4.15945342,28.7939627 C4.92104348,29.1161739 5.71192547,29.2626335 6.53209938,29.2626335 C6.76643478,29.2626335 7.05935404,29.2333416 7.29368944,29.2040497 C8.26032298,29.086882 9.25624845,28.7646708 10.222882,28.2081242 C11.4238509,27.5344099 12.566236,26.5677764 13.8550807,25.161764 C15.1439255,26.5677764 16.3156025,27.5344099 17.4872795,28.2081242 C18.453913,28.7646708 19.4498385,29.086882 20.416472,29.2040497 C20.6508075,29.2333416 20.9437267,29.2626335 21.1780621,29.2626335 C21.998236,29.2626335 22.8184099,29.1161739 23.5507081,28.7939627 C25.6011429,27.9737888 27.0364472,26.0991056 27.3586584,23.9315031 C27.5929938,22.9062857 27.4758261,21.8810683 27.0950311,20.7972671 L27.0950311,20.7972671 Z M13.8843727,22.3204472 C12.3026087,20.3285963 11.2773913,18.453913 10.9258882,16.8721491 C10.7794286,16.1984348 10.7501366,15.6125963 10.8380124,15.0853416 C10.8965963,14.6166708 11.0723478,14.2065839 11.3066832,13.8550807 C11.8632298,13.0641988 12.8005714,12.566236 13.8843727,12.566236 C14.9681739,12.566236 15.9348075,13.0349068 16.4620621,13.8550807 C16.6963975,14.2065839 16.8721491,14.6166708 16.9307329,15.0853416 C17.0186087,15.6125963 16.9893168,16.2277267 16.8428571,16.8721491 C16.491354,18.4246211 15.4661366,20.2993043 13.8843727,22.3204472 L13.8843727,22.3204472 Z M25.5718509,23.6971677 C25.3668075,25.2203478 24.3415901,26.5384845 22.9062857,27.124323 C22.2032795,27.4172422 21.4416894,27.505118 20.6800994,27.4172422 C19.9478012,27.3293665 19.2155031,27.0950311 18.453913,26.6556522 C17.3994037,26.0698137 16.3448944,25.161764 15.1146335,23.8143354 C17.0479006,21.4416894 18.2195776,19.274087 18.6589565,17.3408199 C18.864,16.4327702 18.8932919,15.6125963 18.8054161,14.8510062 C18.6882484,14.1187081 18.4246211,13.4449938 18.0145342,12.8591553 C17.1064845,11.5410186 15.5833043,10.7794286 13.8843727,10.7794286 C12.185441,10.7794286 10.6622609,11.5703106 9.75421118,12.8591553 C9.34412422,13.4449938 9.08049689,14.1187081 8.96332919,14.8510062 C8.84616149,15.6125963 8.87545342,16.4620621 9.10978882,17.3408199 C9.5491677,19.274087 10.7501366,21.4709814 12.6541118,23.8436273 C11.4531429,25.1910559 10.3693416,26.0991056 9.3148323,26.6849441 C8.55324224,27.124323 7.8209441,27.3586584 7.08864596,27.4465342 C6.29776398,27.5344099 5.53617391,27.4172422 4.86245963,27.1536149 C3.42715528,26.5677764 2.40193789,25.2496398 2.19689441,23.7264596 C2.10901863,22.9941615 2.16760248,22.2618634 2.46052174,21.4416894 C2.54839752,21.1487702 2.69485714,20.8558509 2.84131677,20.5043478 C3.04636025,20.035677 3.28069565,19.5377143 3.51503106,19.0397516 L3.54432298,18.9811677 C5.56546584,14.6166708 7.73306832,10.1642981 9.98854658,5.82909317 L10.0764224,5.65334161 C10.3107578,5.21396273 10.5450932,4.74529193 10.7794286,4.30591304 C11.013764,3.83724224 11.2773913,3.39786335 11.5996025,3.01706832 C12.2147329,2.31406211 13.0349068,1.93326708 13.9429565,1.93326708 C14.8510062,1.93326708 15.6711801,2.31406211 16.2863106,3.01706832 C16.6085217,3.39786335 16.8721491,3.83724224 17.1064845,4.30591304 C17.3408199,4.74529193 17.5751553,5.21396273 17.8094907,5.65334161 L17.8973665,5.82909317 C20.1235528,10.1935901 22.2911553,14.6459627 24.3122981,19.0104596 L24.3122981,19.0397516 C24.5466335,19.5084224 24.751677,20.035677 24.9860124,20.5043478 C25.132472,20.8558509 25.2789317,21.1487702 25.3668075,21.4416894 C25.6011429,22.2032795 25.6890186,22.9355776 25.5718509,23.6971677 Z" transform="translate(109 681)"/>
  </g>
</svg>
