<svg xmlns="http://www.w3.org/2000/svg" xmlns:xlink="http://www.w3.org/1999/xlink" width="145" height="50" viewBox="0 0 145 50">
  <defs>
    <rect id="s-a" width="132.91" height="26.393" x="0" y="0"/>
  </defs>
  <g fill="none" fill-rule="evenodd" transform="translate(-611 -670)">
    <rect width="1366" height="6215" fill="#FFF"/>
    <g transform="translate(617 681)">
      <mask id="s-b" fill="#fff">
        <use xlink:href="#s-a"/>
      </mask>
      <g fill="#3D69BA" fill-rule="nonzero" mask="url(#s-b)">
        <polygon points="33.061 7.778 33.061 13.663 39.934 13.663 39.934 7.778 41.789 7.778 41.789 21.844 39.934 21.844 39.934 15.249 33.061 15.249 33.061 21.844 31.227 21.844 31.227 7.778"/>
        <path d="M45.5531215 16.8146585C45.5531215 19.0268749 46.8386645 20.6963126 48.6523874 20.6963126 50.4233673 20.6963126 51.7516532 19.0478285 51.7516532 16.7731542 51.7516532 15.0616079 50.8872293 12.8910971 48.6947232 12.8910971 46.5020135 12.8910971 45.5531215 14.894785 45.5531215 16.8146585L45.5531215 16.8146585zM53.6488264 16.7098905C53.6488264 20.4458768 51.0345905 22.0738102 48.5683264 22.0738102 45.8061187 22.0738102 43.6765056 20.0703238 43.6765056 16.8773178 43.6765056 13.4963338 45.9113476 11.513801 48.7364483 11.513801 51.6671851 11.513801 53.6488264 13.6214509 53.6488264 16.7098905L53.6488264 16.7098905zM55.4936904 14.4773248C55.4936904 13.4338759 55.4725225 12.578405 55.4096294 11.7430817L57.0330447 11.7430817 57.1171057 13.3714181 57.1799988 13.3714181C57.7494968 12.4111791 58.6981851 11.513801 60.3851041 11.513801 61.776283 11.513801 62.8308109 12.3483183 63.273098 13.538241L63.3154338 13.538241C63.6319346 12.9749115 64.0322929 12.5364978 64.4540226 12.2232012 65.0654494 11.7644382 65.7399727 11.513801 66.7100325 11.513801 68.0592827 11.513801 70.0620919 12.3902255 70.0620919 15.8963267L70.0620919 21.844328 68.2487762 21.844328 68.2487762 16.1260104C68.2487762 14.1849818 67.531917 13.0162143 66.0353056 13.0162143 64.9809813 13.0162143 64.1588932 13.7884753 63.8421889 14.6858534 63.7583314 14.9364907 63.6948277 15.2703379 63.6948277 15.6041852L63.6948277 21.844328 61.8821226 21.844328 61.8821226 15.7919617C61.8821226 14.1849818 61.1650599 13.0162143 59.752306 13.0162143 58.5929562 13.0162143 57.7494968 13.9347475 57.4541638 14.8526763 57.3489349 15.1242672 57.3070062 15.4373623 57.3070062 15.7500545L57.3070062 21.844328 55.4936904 21.844328 55.4936904 14.4773248M79.2149706 15.6920291C79.2365456 14.4998902 78.7203744 12.6479145 76.591372 12.6479145 74.6775087 12.6479145 73.8387306 14.3935104 73.6881128 15.6920291L79.2149706 15.6920291zM73.6665378 17.0334624C73.7094843 19.5664301 75.3440941 20.6096775 77.2363824 20.6096775 78.5913317 20.6096775 79.4087383 20.3751584 80.117863 20.0773755L80.4406736 21.4186073C79.7740882 21.7161887 78.6342781 22.0780412 76.9782968 22.0780412 73.7744127 22.0780412 71.8599388 19.9709957 71.8599388 16.8630129 71.8599388 13.7550301 73.7094843 11.3068842 76.7419898 11.3068842 80.139438 11.3068842 81.0427375 14.2659755 81.0427375 16.1606644 81.0427375 16.543672 80.9999947 16.8418578 80.9782161 17.0334624L73.6665378 17.0334624 73.6665378 17.0334624zM90.047848 15.8836337L88.6287844 11.7539614C88.3061774 10.8174968 88.0912418 9.96585386 87.8763062 9.13556752L87.8331562 9.13556752C87.6182206 9.98700894 87.381303 10.8598069 87.1020495 11.7326049L85.6823753 15.8836337 90.047848 15.8836337zM85.295654 17.3310438L83.7896799 21.844328 81.8544452 21.844328 86.779239 7.49655286 89.0374877 7.49655286 93.9834495 21.844328 91.9836933 21.844328 90.4351799 17.3310438 85.295654 17.3310438 85.295654 17.3310438zM95.8494814 11.5407989L97.2255986 16.7775867C97.5268341 17.927214 97.8060876 18.9918179 97.9998553 20.056019L98.0645803 20.056019C98.3008873 19.0131745 98.6450693 17.9062604 98.9894547 16.7775867L100.687975 11.5407989 102.279639 11.5407989 103.89247 16.6927649C104.279395 17.927214 104.580427 19.0131745 104.817345 20.056019L104.881459 20.056019C105.053652 19.0131745 105.333312 17.927214 105.677087 16.714323L107.161283 11.5407989 109.032199 11.5407989 105.677087 21.844328 103.956991 21.844328 102.365328 16.9270826C101.999775 15.7770524 101.698946 14.7555644 101.440861 13.5418675L101.397304 13.5418675C101.139625 14.776518 100.817222 15.8409206 100.451261 16.9480362L98.7741121 21.844328 97.0536094 21.844328 93.9142467 11.5407989 95.8494814 11.5407989M115.822415 16.5861836C113.758137 16.543672 111.414199 16.9053231 111.414199 18.9067947 111.414199 20.1200886 112.230995 20.6942978 113.198816 20.6942978 114.553765 20.6942978 115.413711 19.8430579 115.714947 18.9702599 115.779265 18.7786554 115.822415 18.5656943 115.822415 18.3746942L115.822415 16.5861836zM117.650589 19.3748255C117.650589 20.2687786 117.693128 21.1415766 117.822781 21.844328L116.102075 21.844328 115.951661 20.5456079 115.886733 20.5456079C115.306244 21.3547391 114.188008 22.0780412 112.70422 22.0780412 110.596792 22.0780412 109.521504 20.6096775 109.521504 19.1193528 109.521504 16.6284938 111.757974 15.2665099 115.779265 15.2878664L115.779265 15.0747039C115.779265 14.2232624 115.542958 12.6906276 113.413955 12.6906276 112.446134 12.6906276 111.435367 12.9886119 110.70426 13.4572472L110.273982 12.2221938C111.134131 11.6689382 112.381409 11.3068842 113.693412 11.3068842 116.876332 11.3068842 117.650589 13.4572472 117.650589 15.5217811L117.650589 19.3748255zM120.720342 11.5407989L122.999962 17.6294311C123.236472 18.310826 123.494761 19.1193528 123.666751 19.7366781L123.709697 19.7366781C123.903261 19.1193528 124.118197 18.3317796 124.376282 17.586718L126.440967 11.5407989 128.440723 11.5407989 125.601985 18.8854381C124.247647 22.4189402 123.322772 23.9459337 122.032548 25.0526463 121.107673 25.8617776 120.182799 26.18132 119.709778 26.2659403L119.236553 24.6911968C119.709778 24.5417009 120.333417 24.243918 120.892738 23.7756857 121.408705 23.3707171 122.053512 22.647415 122.483791 21.6895938 122.569887 21.4973848 122.634205 21.3484934 122.634205 21.242315 122.634205 21.1359352 122.591665 20.9868423 122.505569 20.7523232L118.656064 11.5407989 120.720342 11.5407989M131.128029 12.7486529L131.277426 12.7486529C131.451654 12.7486529 131.593316 12.6908291 131.593316 12.551407 131.593316 12.4277002 131.502131 12.3450947 131.302461 12.3450947 131.219214 12.3450947 131.161409 12.3539597 131.128029 12.3618173L131.128029 12.7486529zM131.11948 13.5060046L130.80359 13.5060046 130.80359 12.1561093C130.928155 12.1395882 131.102994 12.1152095 131.327496 12.1152095 131.585581 12.1152095 131.701598 12.1561093 131.792783 12.2221938 131.876436 12.2796147 131.934241 12.3785399 131.934241 12.5101043 131.934241 12.6747109 131.80988 12.7816952 131.651731 12.8308555L131.651731 12.8475781C131.784641 12.8886794 131.850994 12.9954622 131.892923 13.1765899 131.934241 13.3822978 131.967621 13.4562398 131.992656 13.5060046L131.660076 13.5060046C131.618351 13.4562398 131.593316 13.3411965 131.551794 13.1765899 131.527166 13.0369664 131.443919 12.970882 131.269081 12.970882L131.11948 12.970882 131.11948 13.5060046zM130.279888 12.8064768C130.279888 13.4070795 130.737237 13.8841768 131.343982 13.8841768 131.934241 13.8928403 132.383041 13.4070795 132.383041 12.8147374 132.383041 12.2135303 131.934241 11.7281724 131.327496 11.7281724 130.737237 11.7281724 130.279888 12.2135303 130.279888 12.8064768zM132.732312 12.8064768C132.732312 13.563627 132.117425 14.1640282 131.335841 14.1640282 130.55446 14.1640282 129.931228 13.563627 129.931228 12.8064768 129.931228 12.0493266 130.55446 11.456783 131.343982 11.456783 132.117425 11.456783 132.732312 12.0493266 132.732312 12.8064768zM20.6739164 13.0099685L20.6739164 9.59594226 22.8586882 9.38580184 22.8639801 12.7218565 20.6739164 13.0099685zM22.8582811 17.1182842L20.6739164 17.4976652 20.6739164 14.0929069 22.8582811 13.782431 22.8582811 17.1182842zM16.9430737 18.153674L16.9536577 14.6012331 19.591911 14.2478426 19.6098223 17.6894712 16.9430737 18.153674zM3.53788916 20.8480247L3.53788916 18.9575669 8.75923714 18.1045136C8.75923714 18.1045136 9.65887297 18.1105579 9.58763484 17.1078074 9.52433467 16.2140558 8.56913309 16.3697974 8.56913309 16.3697974L3.53788916 17.1100236 3.53788916 7.93798877 8.85428916 1.72383644 14.7180015 8.21562395 14.7180015 22.8501008 3.53788916 20.8480247zM16.9640381 9.95295934L19.5953711 9.70876933 19.5953711 13.1489876 16.9459232 13.493916 16.9640381 9.95295934zM19.4178864 0L7.29010332 0 .13372415 8.36209766 2.65616462 8.1864098 2.65616462 17.2343349.732327994 17.5133804C.732327994 17.5133804-.194174793 17.6846358.0370438285 18.6599855.23956366 19.3714004.972502266 19.3714004.972502266 19.3714004L2.65616462 19.0998096 2.65616462 21.5024217 14.7180015 23.6612468 24.1961332 21.521562 24.1792396 8.37740991 26.7759713 8.14470408 19.4178864 0 19.4178864 0z"/>
        <path d="M10.9507256,13.8382401 C10.4860494,14.4340073 9.86403879,14.7972702 9.16834755,14.833536 C9.13089665,14.8357522 9.09364928,14.8365582 9.05599484,14.8365582 C8.3554187,14.8365582 7.6957536,14.4982784 7.1836532,13.9105703 C6.67379172,13.3246754 6.32533548,12.4931802 6.27689355,11.5534919 C6.27261926,11.4753189 6.2695662,11.3977503 6.2695662,11.3213905 C6.2695662,10.4091031 6.55920009,9.58465955 7.02163734,8.98848937 C7.48631349,8.39211772 8.10873123,8.02865338 8.80381185,7.99238753 C8.84126276,7.99077572 8.8789172,7.98956686 8.9163681,7.98956686 C9.61613009,7.98956686 10.2766093,8.32824954 10.7885062,8.91636064 C11.2993854,9.5030614 11.6474345,10.3343551 11.6956729,11.2730361 C11.7003543,11.3514106 11.7030003,11.4283748 11.7030003,11.5059434 C11.7030003,12.4174249 11.4129593,13.2432788 10.9507256,13.8382401 L10.9507256,13.8382401 Z M11.3040667,8.47734245 C10.689994,7.76915112 9.84490626,7.31703693 8.9163681,7.31703693 C8.86792617,7.31703693 8.8176524,7.3190517 8.7688034,7.32106647 C7.8482032,7.36821207 7.04219462,7.85578619 6.48246645,8.57969272 C5.92192412,9.30400222 5.59137919,10.2698825 5.59137919,11.3213905 C5.59137919,11.4100404 5.59382164,11.4988917 5.59768885,11.5881459 C5.65569704,12.6698755 6.05442704,13.6393824 6.66911035,14.3491855 C7.28196182,15.0559665 8.12745668,15.5090881 9.05599484,15.5090881 C9.10504738,15.5090881 9.15471054,15.5088866 9.203356,15.505663 C10.1237527,15.4587189 10.9297612,14.9703388 11.4898965,14.2468352 C12.0514565,13.5225258 12.3820014,12.5574514 12.3820014,11.5059434 C12.3820014,11.4172935 12.3789484,11.3276363 12.3744706,11.2377776 C12.3160553,10.1558466 11.9189536,9.18593675 11.3040667,8.47734245 L11.3040667,8.47734245 Z"/>
        <path d="M7.8156372,11.4827735 C7.75355825,10.3091705 8.13722648,9.29372689 8.72239685,8.90789861 C7.72770899,8.97700519 6.98398289,10.1453698 7.0572564,11.5341501 C7.13236175,12.9338102 8.00736954,14.0258151 9.01162366,13.974237 L9.01121658,13.9601336 C8.37740075,13.6494562 7.87791968,12.6686666 7.8156372,11.4827735"/>
      </g>
    </g>
  </g>
</svg>
